HIERARCHY
ROOT Hips
{
	OFFSET 0.00 0.00 0.00
	CHANNELS 6 Xposition Yposition Zposition Xrotation Yrotation Zrotation
	JOINT RightUpLeg
	{
		OFFSET -3.69398 0.00000 0.00000
		CHANNELS 3 Xrotation Yrotation Zrotation
		JOINT RightLeg
		{
			OFFSET 0.00000 -15.79567 0.00000
			CHANNELS 3 Xrotation Yrotation Zrotation
			JOINT RightFoot
			{
				OFFSET 0.00000 -14.76699 0.00000
				CHANNELS 3 Xrotation Yrotation Zrotation
				JOINT RightToeBase
				{
					OFFSET 0.00000 -1.28446 4.79369
					CHANNELS 3 Xrotation Yrotation Zrotation
					End Site
					{
						OFFSET 0.00000 0.00000 2.95275
					}
				}
			}
		}
	}
	JOINT LeftUpLeg
	{
		OFFSET 3.69398 0.00000 0.00000
		CHANNELS 3 Xrotation Yrotation Zrotation
		JOINT LeftLeg
		{
			OFFSET 0.00000 -15.79567 0.00000
			CHANNELS 3 Xrotation Yrotation Zrotation
			JOINT LeftFoot
			{
				OFFSET 0.00000 -14.76699 0.00000
				CHANNELS 3 Xrotation Yrotation Zrotation
				JOINT LeftToeBase
				{
					OFFSET 0.00000 -1.28446 4.79369
					CHANNELS 3 Xrotation Yrotation Zrotation
					End Site
					{
						OFFSET 0.00000 0.00000 2.95275
					}
				}
			}
		}
	}
	JOINT Spine
	{
		OFFSET 0.00000 2.39296 0.00000
		CHANNELS 3 Xrotation Yrotation Zrotation
		JOINT RightShoulder
		{
			OFFSET 0.00000 13.20741 0.00000
			CHANNELS 3 Xrotation Yrotation Zrotation
			JOINT RightArm
			{
				OFFSET -8.14047 0.00000 0.00000
				CHANNELS 3 Xrotation Yrotation Zrotation
				JOINT RightForeArm
				{
					OFFSET -10.64984 0.00000 0.00000
					CHANNELS 3 Yrotation Zrotation Xrotation
					JOINT RightHand
					{
						OFFSET -8.30462 0.00000 0.00000
						CHANNELS 3 Xrotation Yrotation Zrotation
						End Site
						{
							OFFSET -3.93700 0.00000 0.00000
						}
						JOINT RightHandThumb1
						{
							OFFSET 0.00000 0.00000 0.00000
							CHANNELS 3 Xrotation Zrotation Yrotation
							End Site
							{
								OFFSET 0.00000 0.00000 3.93700
							}
						}
					}
				}
			}
		}
		JOINT LeftShoulder
		{
			OFFSET 0.00000 13.20741 0.00000
			CHANNELS 3 Xrotation Yrotation Zrotation
			JOINT LeftArm
			{
				OFFSET 8.14047 0.00000 0.00000
				CHANNELS 3 Xrotation Yrotation Zrotation
				JOINT LeftForeArm
				{
					OFFSET 10.64984 0.00000 0.00000
					CHANNELS 3 Yrotation Zrotation Xrotation
					JOINT LeftHand
					{
						OFFSET 8.30462 0.00000 0.00000
						CHANNELS 3 Xrotation Yrotation Zrotation
						End Site
						{
							OFFSET 3.93700 0.00000 0.00000
						}
						JOINT LeftHandThumb1
						{
							OFFSET 0.00000 0.00000 0.00000
							CHANNELS 3 Xrotation Zrotation Yrotation
							End Site
							{
								OFFSET 0.00000 0.00000 3.93700
							}
						}
					}
				}
			}
		}
		JOINT Head
		{
			OFFSET 0.00000 19.25010 0.00000
			CHANNELS 3 Xrotation Yrotation Zrotation
			End Site
			{
				OFFSET 0.00000 4.52755 0.00000
			}
		}
	}
}
MOTION
Frames: 17
Frame Time: 0.008333
 2.7537 32.7667 -6.4250 43.1046 3.6377 -0.8591 -35.9134 -19.9651 -4.6912 -3.9658 -0.0000 0.0000 -6.2736 -9.5663 20.6214 21.3612 0.0000 0.0000 -37.9654 11.3608 3.1865 0.0365 -0.0000 -0.0000 -4.4224 -2.7993 -16.6990 3.1182 0.0000 -0.0000 -48.0643 2.4029 -2.2647 -52.6517 35.8050 -52.7067 -7.2341 43.2386 23.3016 3.1549 -0.0000 -4.2028 2.4435 12.1211 -11.4874 32.8623 0.0000 -24.3270 -28.5960 -13.4763 53.5728 -43.0124 -49.4829 -15.0631 -5.5108 0.0000 24.3616 -5.1203 26.6423 11.3002 33.1476 -0.0000 26.2537 6.4495 -2.2485 8.8316
 2.7575 32.7683 -6.4307 43.0961 3.6373 -0.8550 -35.9248 -19.9749 -4.7035 -3.9566 0.0000 0.0000 -6.2620 -9.5477 20.6004 21.3732 0.0000 -0.0000 -37.9677 11.3415 3.1785 0.0466 -0.0000 -0.0000 -4.4232 -2.7769 -16.7033 3.1814 -0.0000 0.0000 -48.0751 2.4064 -2.2455 -52.6962 35.8334 -52.7001 -7.1699 43.3207 23.3080 3.2063 -0.0000 -4.0653 2.4517 12.0475 -11.5928 32.8623 0.0000 -24.3270 -28.5678 -13.4770 53.5944 -42.9555 -49.5116 -15.0832 -5.3866 0.0000 24.4401 -5.1805 26.6943 11.4102 33.1476 -0.0000 26.2537 6.4422 -2.2779 8.8114
 2.7608 32.7687 -6.4359 43.0915 3.6306 -0.8487 -35.9373 -19.9858 -4.7124 -3.9522 -0.0000 -0.0000 -6.2602 -9.5211 20.5983 21.3741 0.0000 0.0000 -37.9726 11.3346 3.1729 0.0523 -0.0000 -0.0000 -4.4240 -2.7772 -16.6858 3.1778 0.0000 -0.0000 -48.0782 2.4122 -2.2255 -52.7271 35.8408 -52.7090 -7.1493 43.3761 23.3126 3.2832 -0.0000 -3.9859 2.4576 12.0812 -11.5885 32.8623 0.0000 -24.3270 -28.5316 -13.4325 53.5924 -42.9295 -49.5573 -15.0444 -5.3521 0.0000 24.2750 -5.0573 26.7009 11.1419 33.1476 -0.0000 26.2537 6.3802 -2.3397 8.7750
 2.7637 32.7687 -6.4406 43.0867 3.6209 -0.8403 -35.9466 -19.9643 -4.7194 -3.9472 -0.0000 -0.0000 -6.2592 -9.5350 20.5980 21.4062 0.0000 -0.0000 -37.9742 11.3225 3.1685 0.0569 0.0000 -0.0000 -4.4246 -2.7617 -16.6935 3.1656 0.0000 -0.0000 -48.0826 2.4086 -2.2071 -52.7627 35.8551 -52.7125 -7.1738 43.4145 23.3554 3.3843 -0.0000 -3.8882 2.4824 12.0478 -11.7336 32.8623 0.0000 -24.3270 -28.4835 -13.3668 53.6173 -42.8380 -49.5844 -14.9913 -5.2989 0.0000 24.4211 -5.0563 26.6838 11.1461 33.1476 -0.0000 26.2537 6.3510 -2.3607 8.7383
 2.7666 32.7687 -6.4449 43.0803 3.6135 -0.8289 -35.9604 -19.9860 -4.7319 -3.9409 -0.0000 -0.0000 -6.2547 -9.5061 20.6117 21.4237 0.0000 -0.0000 -37.9772 11.3377 3.1603 0.0669 -0.0000 0.0000 -4.4257 -2.7647 -16.6927 3.1683 0.0000 0.0000 -48.0857 2.4046 -2.1978 -52.7971 35.8615 -52.7035 -7.2104 43.4341 23.3903 3.5302 -0.0000 -3.8504 2.5020 12.0744 -11.7991 32.8623 0.0000 -24.3270 -28.4509 -13.3359 53.6266 -42.8509 -49.5682 -14.9793 -5.3864 0.0000 24.2372 -5.1122 26.8721 11.1955 33.1476 -0.0000 26.2537 6.2756 -2.3688 8.7643
 2.7695 32.7690 -6.4503 43.0708 3.6058 -0.8206 -35.9648 -19.9613 -4.7396 -3.9385 -0.0000 0.0000 -6.2414 -9.5131 20.5918 21.4120 0.0000 -0.0000 -37.9751 11.3102 3.1544 0.0742 0.0000 -0.0000 -4.4308 -2.7322 -16.6913 3.1817 0.0000 -0.0000 -48.0832 2.4057 -2.1789 -52.8481 35.9097 -52.7050 -7.2800 43.4265 23.4857 3.6736 -0.0000 -3.7415 2.4771 12.0382 -11.7183 32.8623 0.0000 -24.3270 -28.4344 -13.3168 53.6195 -42.8319 -49.5494 -14.9814 -5.4479 0.0000 24.3482 -5.1406 26.8830 11.2524 33.1476 -0.0000 26.2537 6.2579 -2.4226 8.7353
 2.7726 32.7674 -6.4545 43.0687 3.5973 -0.8082 -35.9701 -19.9688 -4.7491 -3.9526 -0.0000 -0.0000 -6.2403 -9.4976 20.6186 21.3732 -0.0000 0.0000 -37.9752 11.3023 3.1450 0.0740 -0.0000 -0.0000 -4.4440 -2.7207 -16.6878 3.1804 0.0000 -0.0000 -48.0865 2.4072 -2.1802 -52.7702 35.8507 -52.7246 -7.3768 43.3899 23.4473 3.8419 0.0000 -3.6429 2.5189 12.0673 -11.8830 32.8623 0.0000 -24.3270 -28.4256 -13.3308 53.6425 -42.8609 -49.4883 -15.0071 -5.6043 0.0000 24.2109 -5.0565 26.9274 11.0556 33.1476 -0.0000 26.2537 6.2189 -2.4452 8.7953
 2.7752 32.7679 -6.4594 43.0578 3.5951 -0.7978 -35.9749 -19.9757 -4.7614 -3.9517 -0.0000 -0.0000 -6.2400 -9.4887 20.6119 21.4132 -0.0000 0.0000 -37.9693 11.2823 3.1362 0.0781 -0.0000 0.0000 -4.4467 -2.7042 -16.6911 3.2223 0.0000 -0.0000 -48.0858 2.4011 -2.1775 -52.7937 35.8648 -52.7008 -7.4058 43.4235 23.4508 3.9339 0.0000 -3.6877 2.5643 12.1549 -12.0078 32.8623 0.0000 -24.3270 -28.4012 -13.3170 53.6381 -42.8689 -49.4879 -14.9962 -5.6776 0.0000 24.1853 -5.0454 26.9409 11.0267 33.1476 -0.0000 26.2537 6.1920 -2.4803 8.8264
 2.7780 32.7679 -6.4646 43.0419 3.5896 -0.7847 -35.9712 -19.9671 -4.7729 -3.9562 -0.0000 -0.0000 -6.2327 -9.4798 20.6109 21.3900 0.0000 0.0000 -37.9577 11.2733 3.1252 0.0782 0.0000 -0.0000 -4.4405 -2.6920 -16.6843 3.2026 0.0000 0.0000 -48.0789 2.3966 -2.1750 -52.8715 35.9534 -52.6394 -7.4416 43.4147 23.5237 4.0405 0.0000 -3.5699 2.6017 12.1790 -12.1550 32.8623 0.0000 -24.3270 -28.3607 -13.2729 53.6256 -42.8413 -49.5331 -14.9233 -5.7219 0.0000 24.2010 -4.8786 26.8499 10.7016 33.1476 -0.0000 26.2537 6.1780 -2.4888 8.8878
 2.7803 32.7686 -6.4684 43.0204 3.5810 -0.7775 -35.9569 -19.9680 -4.7758 -3.9624 -0.0000 -0.0000 -6.2145 -9.4850 20.6541 21.4312 -0.0000 0.0000 -37.9375 11.2611 3.1234 0.0756 0.0000 0.0000 -4.4418 -2.6810 -16.6987 3.2305 0.0000 0.0000 -48.0754 2.3977 -2.1647 -52.9429 36.0406 -52.5830 -7.4346 43.4668 23.5667 4.0671 0.0000 -3.4608 2.6463 12.2523 -12.2869 32.8623 0.0000 -24.3270 -28.2966 -13.2142 53.6101 -42.8426 -49.6022 -14.8546 -5.7101 0.0000 24.1370 -4.7045 26.7555 10.3592 33.1476 -0.0000 26.2537 6.2076 -2.5217 8.9253
 2.7829 32.7690 -6.4725 43.0078 3.5762 -0.7678 -35.9534 -19.9641 -4.7838 -3.9702 0.0000 0.0000 -6.2084 -9.4464 20.6707 21.4104 0.0000 0.0000 -37.9282 11.2532 3.1152 0.0737 -0.0000 -0.0000 -4.4297 -2.6730 -16.6730 3.2171 0.0000 -0.0000 -48.0768 2.3933 -2.1591 -52.9559 36.0524 -52.5561 -7.4094 43.5836 23.5347 4.0778 0.0000 -3.4086 2.6498 12.1280 -12.4230 32.8623 0.0000 -24.3270 -28.2475 -13.1659 53.6199 -42.8375 -49.6528 -14.8147 -5.6819 0.0000 24.2177 -4.7819 26.7803 10.5180 33.1476 -0.0000 26.2537 6.2172 -2.5735 8.9633
 2.7842 32.7698 -6.4764 42.9979 3.5649 -0.7605 -35.9508 -19.9663 -4.7855 -3.9753 0.0000 0.0000 -6.2029 -9.4714 20.6735 21.4870 -0.0000 0.0000 -37.9224 11.2565 3.1157 0.0726 0.0000 0.0000 -4.4247 -2.6685 -16.6891 3.1891 0.0000 -0.0000 -48.0804 2.3976 -2.1504 -52.9646 36.0820 -52.5605 -7.4601 43.6378 23.5967 4.1072 0.0000 -3.2657 2.6878 12.1543 -12.5696 32.8623 0.0000 -24.3270 -28.2330 -13.1615 53.6360 -42.8454 -49.6820 -14.8479 -5.6450 0.0000 24.4073 -4.9512 26.8463 10.8591 33.1476 -0.0000 26.2537 6.2289 -2.6220 9.0044
 2.7864 32.7702 -6.4798 42.9927 3.5613 -0.7530 -35.9565 -19.9767 -4.7931 -3.9786 0.0000 -0.0000 -6.1808 -9.4161 20.6921 21.4109 0.0000 0.0000 -37.9267 11.2539 3.1097 0.0849 -0.0000 0.0000 -4.4235 -2.6672 -16.6828 3.1887 -0.0000 0.0000 -48.0906 2.3923 -2.1429 -52.8837 36.0237 -52.6105 -7.4833 43.7458 23.5327 4.1192 0.0000 -3.3279 2.6534 12.2376 -12.3331 32.8623 0.0000 -24.3270 -28.2305 -13.1483 53.6375 -42.9254 -49.7073 -14.9255 -5.6650 0.0000 24.4845 -5.0538 26.9394 11.0453 33.1476 -0.0000 26.2537 6.2710 -2.6487 9.0094
 2.7883 32.7709 -6.4840 42.9943 3.5542 -0.7482 -35.9692 -20.0000 -4.7975 -3.9801 -0.0000 0.0000 -6.1674 -9.4148 20.6819 21.4595 -0.0000 0.0000 -37.9392 11.2406 3.1081 0.0989 0.0000 -0.0000 -4.4360 -2.6534 -16.6749 3.2203 -0.0000 0.0000 -48.1046 2.4220 -2.1289 -52.8617 36.0207 -52.6500 -7.4781 43.8419 23.5283 4.1437 0.0000 -3.3310 2.7043 12.2719 -12.5290 32.8623 0.0000 -24.3270 -28.1921 -13.1072 53.6011 -43.0606 -49.7462 -14.9485 -5.7207 0.0000 24.4467 -5.1965 26.9574 11.3439 33.1476 -0.0000 26.2537 6.3026 -2.7091 9.0209
 2.7894 32.7718 -6.4880 42.9918 3.5407 -0.7376 -35.9820 -20.0164 -4.8000 -3.9769 0.0000 0.0000 -6.1569 -9.3902 20.6767 21.4475 -0.0000 -0.0000 -37.9468 11.2420 3.1087 0.1109 -0.0000 -0.0000 -4.4367 -2.6460 -16.6814 3.2313 -0.0000 -0.0000 -48.1116 2.4353 -2.1260 -52.8865 36.0322 -52.6455 -7.5211 43.8988 23.5749 4.2220 0.0000 -3.2450 2.7015 12.4057 -12.3876 32.8623 0.0000 -24.3270 -28.2548 -13.1236 53.6221 -43.2337 -49.7375 -15.1867 -5.8162 0.0000 24.4762 -5.2412 27.0110 11.4190 33.1476 -0.0000 26.2537 6.2900 -2.7002 9.0937
 2.7912 32.7718 -6.4914 42.9890 3.5344 -0.7288 -35.9898 -20.0436 -4.8054 -3.9841 0.0000 -0.0000 -6.1404 -9.3464 20.6730 21.4238 0.0000 0.0000 -37.9517 11.2390 3.1022 0.1200 0.0000 -0.0000 -4.4305 -2.6318 -16.6761 3.2121 0.0000 -0.0000 -48.1240 2.4437 -2.1196 -52.8683 36.0476 -52.6645 -7.5479 43.9348 23.5963 4.3089 0.0000 -3.2046 2.7366 12.4802 -12.4721 32.8623 0.0000 -24.3270 -28.2516 -13.1090 53.6090 -43.2768 -49.7530 -15.2331 -5.8781 0.0000 24.5916 -5.3725 27.0702 11.6758 33.1476 -0.0000 26.2537 6.2958 -2.7147 9.1618
 2.7926 32.7721 -6.4961 42.9982 3.5236 -0.7228 -36.0131 -20.0413 -4.8098 -3.9789 0.0000 -0.0000 -6.1416 -9.3462 20.6901 21.4534 0.0000 0.0000 -37.9773 11.2302 3.1048 0.1404 0.0000 -0.0000 -4.4350 -2.6176 -16.6746 3.1853 0.0000 0.0000 -48.1412 2.4592 -2.1066 -52.8662 36.0541 -52.6848 -7.5478 43.9926 23.6064 4.3798 0.0000 -3.2223 2.7050 12.4050 -12.4036 32.8623 0.0000 -24.3270 -28.2183 -13.0435 53.5778 -43.3055 -49.7967 -15.1853 -5.9493 0.0000 24.5840 -5.3841 27.0614 11.7040 33.1476 -0.0000 26.2537 6.3104 -2.7661 9.1891
